<?xml version="1.0" standalone="no"?>
<!DOCTYPE svg PUBLIC "-//W3C//DTD SVG 20010904//EN"
 "http://www.w3.org/TR/2001/REC-SVG-20010904/DTD/svg10.dtd">
<svg version="1.0" xmlns="http://www.w3.org/2000/svg"
 width="523.000000pt" height="238.000000pt" viewBox="0 0 523.000000 238.000000"
 preserveAspectRatio="xMidYMid meet">

<g transform="translate(0.000000,238.000000) scale(0.100000,-0.100000)"
fill="#000000" stroke="none">
<path d="M1074 1426 c-36 -16 -44 -32 -44 -92 0 -44 0 -44 -35 -44 -19 0 -35
-4 -35 -10 0 -5 16 -10 35 -10 l36 0 -3 -127 c-2 -105 -6 -128 -18 -129 -8 -1
-23 -2 -32 -3 -10 0 -18 -5 -18 -11 0 -6 45 -10 115 -10 70 0 115 4 115 10 0
11 -7 12 -82 15 l-53 1 -3 127 -3 127 71 0 c40 0 70 4 70 10 0 6 -30 10 -70
10 l-70 0 0 38 c0 21 7 48 16 61 16 22 22 23 80 18 50 -4 64 -2 64 9 0 8 -8
14 -17 14 -10 0 -34 2 -53 5 -19 3 -49 -1 -66 -9z"/>
<path d="M1829 1429 c-32 -12 -49 -47 -49 -99 0 -39 -1 -40 -35 -40 -19 0 -35
-4 -35 -10 0 -5 16 -10 35 -10 l35 0 0 -128 c0 -127 0 -129 -22 -127 -28 2
-48 -4 -48 -16 0 -5 52 -9 116 -9 88 0 115 3 111 13 -2 7 -24 13 -53 14 -27 1
-57 2 -67 2 -16 1 -17 12 -15 124 l3 122 68 3 c37 2 67 7 67 12 0 5 -30 10
-67 12 l-68 3 2 45 c3 60 21 73 96 67 45 -4 57 -2 57 9 0 8 -8 14 -17 14 -10
0 -34 2 -53 5 -19 2 -47 0 -61 -6z"/>
<path d="M3377 1431 c-61 -8 -57 -27 6 -23 l47 3 0 -86 0 -87 -35 31 c-28 24
-45 31 -78 31 -132 0 -191 -167 -96 -274 50 -57 122 -59 179 -6 l30 28 0 -29
c0 -27 3 -29 40 -29 47 0 54 18 10 27 l-30 6 0 208 c0 161 -3 209 -12 207 -7
0 -34 -4 -61 -7z m-22 -165 c62 -26 92 -110 65 -181 -36 -95 -156 -102 -200
-10 -46 95 -3 190 93 204 4 0 23 -5 42 -13z"/>
<path d="M2240 1283 c-14 -9 -37 -27 -52 -41 l-28 -26 0 37 0 37 -50 0 c-58 0
-68 -17 -12 -22 l37 -3 0 -125 0 -125 -37 1 c-25 0 -38 -4 -38 -13 0 -10 26
-13 110 -13 67 0 110 4 110 10 0 6 -4 11 -10 11 -5 1 -14 3 -20 4 -5 1 -28 3
-50 4 l-40 1 0 85 0 85 51 40 c61 48 97 60 114 36 13 -17 35 -22 35 -7 0 38
-77 54 -120 24z"/>
<path d="M2500 1274 c-43 -37 -62 -78 -62 -136 1 -125 105 -187 234 -138 39
14 55 25 52 35 -5 11 -13 10 -47 -6 -58 -26 -127 -25 -162 3 -29 23 -59 83
-50 98 4 6 62 10 131 10 l124 0 0 30 c0 107 -139 172 -220 104z m151 -17 c19
-12 49 -65 49 -86 0 -7 -40 -11 -121 -11 -120 0 -120 0 -114 23 25 83 114 119
186 74z"/>
<path d="M2882 1280 c-68 -42 -92 -164 -45 -229 31 -41 82 -71 122 -71 44 1
133 31 139 48 5 16 -11 15 -55 -3 -78 -33 -158 -12 -187 49 -31 66 -31 66 114
66 l130 0 0 26 c0 40 -30 94 -64 115 -41 25 -112 25 -154 -1z m122 -14 c39
-16 66 -51 66 -83 0 -23 -2 -23 -116 -23 l-116 0 7 28 c8 34 51 80 79 85 39 8
46 7 80 -7z"/>
<path d="M3632 1281 c-49 -31 -72 -76 -72 -142 0 -42 6 -65 23 -90 84 -126
267 -66 267 88 0 96 -48 154 -132 160 -41 3 -61 -1 -86 -16z m124 -17 c118
-56 78 -254 -51 -254 -113 0 -164 151 -78 232 46 42 76 47 129 22z"/>
<path d="M3982 1284 c-12 -8 -22 -10 -22 -5 0 6 -16 11 -35 11 -19 0 -35 -4
-35 -10 0 -5 11 -10 25 -10 l25 0 0 -124 c0 -124 0 -124 -25 -130 -46 -12 -26
-26 35 -26 61 0 81 14 35 26 -25 6 -25 8 -25 111 0 97 2 106 25 128 28 29 47
31 69 9 13 -12 16 -41 16 -145 l0 -129 36 0 c24 0 34 4 31 13 -2 6 -12 11 -21
11 -14 -2 -16 13 -16 111 0 111 1 114 26 134 32 25 34 25 59 7 17 -12 20 -30
23 -145 l4 -131 29 0 c16 0 29 5 29 10 0 6 -9 10 -19 10 -18 0 -20 10 -23 124
-2 105 -6 127 -22 145 -25 27 -64 27 -93 -1 l-23 -22 -16 22 c-18 26 -60 29
-92 6z"/>
<path d="M1414 1246 c-3 -8 -4 -25 -2 -38 2 -19 9 -23 38 -23 33 0 35 2 35 35
0 32 -3 35 -33 38 -21 2 -34 -2 -38 -12z"/>
<path d="M1416 1048 c-13 -19 -14 -25 -2 -43 26 -39 76 -26 76 19 0 46 -48 62
-74 24z"/>
</g>
</svg>
